%
M48
M72
T01C0.02400
T02C0.03200
T03C0.04000
T04C0.05906
T05C0.06299
%
T01
X148104Y131400
T02
X125704Y135000
X105704Y135000
X105704Y109800
X125704Y109800
X177054Y64000
X200304Y62200
X200304Y42200
X177054Y44000
X153504Y42400
X140304Y60000
X120304Y60000
X153504Y22400
X247054Y92250
X274804Y92250
X274804Y112250
X269804Y124500
X249804Y124500
X247054Y112250
X221104Y126000
X201104Y126000
X148104Y166400
X148104Y186400
X136504Y198000
X116504Y198000
X122104Y235800
X102104Y235800
X102104Y266400
X122104Y266400
X206504Y264600
X226504Y264600
X250804Y265000
X270804Y265000
X276079Y247125
X302904Y251200
X302904Y231200
X276079Y227125
X245529Y227125
X245529Y247125
X202104Y191800
X176279Y190275
X176279Y170275
X202104Y171800
X302904Y110800
X302904Y90800
X328879Y95125
X328879Y115125
X343304Y126000
X363304Y126000
X365104Y75600
X345104Y75600
X348704Y221400
X330304Y228800
X330304Y248800
X346904Y266400
X366904Y266400
X368704Y221400
T03
X68304Y43000
X68304Y53000
X68304Y63000
X68704Y177600
X68704Y187600
X68704Y197600
X383904Y221400
X383904Y268200
X383904Y126000
X383904Y75600
T04
X45704Y130400
X44904Y251000
T05
X54904Y241000
X34904Y241000
X34904Y261000
X54904Y261000
X55704Y140400
X35704Y140400
X35704Y120400
X55704Y120400
M30
