G75*
%MOIN*%
%OFA0B0*%
%FSLAX25Y25*%
%IPPOS*%
%LPD*%
%AMOC8*
5,1,8,0,0,1.08239X$1,22.5*
%
%ADD10R,0.06400X0.02500*%
%ADD11C,0.10800*%
%ADD12OC8,0.07400*%
%ADD13R,0.08280X0.14186*%
%ADD14C,0.06800*%
%ADD15OC8,0.08400*%
%ADD16R,0.02375X0.02178*%
%ADD17OC8,0.06000*%
%ADD18C,0.04800*%
D10*
X0154754Y0122850D03*
X0154754Y0125350D03*
X0154754Y0127950D03*
X0154754Y0130450D03*
X0171954Y0130450D03*
X0171954Y0127950D03*
X0171954Y0125350D03*
X0171954Y0122850D03*
X0177479Y0253875D03*
X0177479Y0256375D03*
X0177479Y0258975D03*
X0177479Y0261475D03*
X0160279Y0261475D03*
X0160279Y0258975D03*
X0160279Y0256375D03*
X0160279Y0253875D03*
D11*
X0054904Y0261000D03*
X0044904Y0251000D03*
X0054904Y0241000D03*
X0034904Y0241000D03*
X0034904Y0261000D03*
X0035704Y0140400D03*
X0045704Y0130400D03*
X0055704Y0120400D03*
X0035704Y0120400D03*
X0055704Y0140400D03*
D12*
X0116504Y0198000D03*
X0136504Y0198000D03*
X0176279Y0190275D03*
X0176279Y0170275D03*
X0249804Y0124500D03*
X0247054Y0112250D03*
X0269804Y0124500D03*
X0274804Y0112250D03*
X0274804Y0092250D03*
X0247054Y0092250D03*
X0177054Y0064000D03*
X0177054Y0044000D03*
X0140304Y0060000D03*
X0120304Y0060000D03*
X0328879Y0095125D03*
X0328879Y0115125D03*
X0330304Y0228800D03*
X0330304Y0248800D03*
X0276079Y0247125D03*
X0270804Y0265000D03*
X0250804Y0265000D03*
X0245529Y0247125D03*
X0245529Y0227125D03*
X0276079Y0227125D03*
D13*
X0302227Y0209800D03*
X0317581Y0209800D03*
X0317581Y0266000D03*
X0302227Y0266000D03*
X0302227Y0122700D03*
X0317581Y0122700D03*
X0317581Y0079000D03*
X0302227Y0079000D03*
D14*
X0068304Y0043000D03*
X0068304Y0053000D03*
X0068304Y0063000D03*
X0068704Y0177600D03*
X0068704Y0187600D03*
X0068704Y0197600D03*
D15*
X0383904Y0221400D03*
X0383904Y0268200D03*
X0383904Y0126000D03*
X0383904Y0075600D03*
D16*
X0292227Y0119430D03*
X0292227Y0123249D03*
X0285416Y0123249D03*
X0285416Y0119351D03*
X0285416Y0259751D03*
X0285416Y0263649D03*
X0292227Y0263649D03*
X0292227Y0259830D03*
D17*
X0302904Y0251200D03*
X0302904Y0231200D03*
X0348704Y0221400D03*
X0368704Y0221400D03*
X0366904Y0266400D03*
X0346904Y0266400D03*
X0226504Y0264600D03*
X0206504Y0264600D03*
X0122104Y0266400D03*
X0102104Y0266400D03*
X0102104Y0235800D03*
X0122104Y0235800D03*
X0148104Y0186400D03*
X0148104Y0166400D03*
X0125704Y0135000D03*
X0105704Y0135000D03*
X0105704Y0109800D03*
X0125704Y0109800D03*
X0201104Y0126000D03*
X0221104Y0126000D03*
X0202104Y0171800D03*
X0202104Y0191800D03*
X0302904Y0110800D03*
X0302904Y0090800D03*
X0345104Y0075600D03*
X0365104Y0075600D03*
X0363304Y0126000D03*
X0343304Y0126000D03*
X0200304Y0062200D03*
X0200304Y0042200D03*
X0153504Y0042400D03*
X0153504Y0022400D03*
D18*
X0148104Y0131400D03*
M02*
