G75*
%MOIN*%
%OFA0B0*%
%FSLAX25Y25*%
%IPPOS*%
%LPD*%
%AMOC8*
5,1,8,0,0,1.08239X$1,22.5*
%
%ADD10C,0.10000*%
%ADD11OC8,0.06600*%
%ADD12C,0.06000*%
%ADD13OC8,0.07600*%
%ADD14OC8,0.05200*%
%ADD15C,0.01000*%
%ADD16C,0.04000*%
D10*
X0035704Y0120400D03*
X0045704Y0130400D03*
X0055704Y0120400D03*
X0055704Y0140400D03*
X0035704Y0140400D03*
X0034904Y0241000D03*
X0044904Y0251000D03*
X0054904Y0241000D03*
X0054904Y0261000D03*
X0034904Y0261000D03*
D11*
X0116504Y0198000D03*
X0136504Y0198000D03*
X0176279Y0190275D03*
X0176279Y0170275D03*
X0249804Y0124500D03*
X0247054Y0112250D03*
X0269804Y0124500D03*
X0274804Y0112250D03*
X0274804Y0092250D03*
X0247054Y0092250D03*
X0177054Y0064000D03*
X0177054Y0044000D03*
X0140304Y0060000D03*
X0120304Y0060000D03*
X0328879Y0095125D03*
X0328879Y0115125D03*
X0330304Y0228800D03*
X0330304Y0248800D03*
X0276079Y0247125D03*
X0270804Y0265000D03*
X0250804Y0265000D03*
X0245529Y0247125D03*
X0245529Y0227125D03*
X0276079Y0227125D03*
D12*
X0068304Y0043000D03*
X0068304Y0053000D03*
X0068304Y0063000D03*
X0068704Y0177600D03*
X0068704Y0187600D03*
X0068704Y0197600D03*
D13*
X0383904Y0221400D03*
X0383904Y0268200D03*
X0383904Y0126000D03*
X0383904Y0075600D03*
D14*
X0365104Y0075600D03*
X0345104Y0075600D03*
X0302904Y0090800D03*
X0302904Y0110800D03*
X0343304Y0126000D03*
X0363304Y0126000D03*
X0368704Y0221400D03*
X0348704Y0221400D03*
X0302904Y0231200D03*
X0302904Y0251200D03*
X0346904Y0266400D03*
X0366904Y0266400D03*
X0226504Y0264600D03*
X0206504Y0264600D03*
X0122104Y0266400D03*
X0102104Y0266400D03*
X0102104Y0235800D03*
X0122104Y0235800D03*
X0148104Y0186400D03*
X0148104Y0166400D03*
X0125704Y0135000D03*
X0105704Y0135000D03*
X0105704Y0109800D03*
X0125704Y0109800D03*
X0201104Y0126000D03*
X0221104Y0126000D03*
X0202104Y0171800D03*
X0202104Y0191800D03*
X0200304Y0062200D03*
X0200304Y0042200D03*
X0153504Y0042400D03*
X0153504Y0022400D03*
D15*
X0148104Y0043200D02*
X0151704Y0046800D01*
X0174204Y0046800D01*
X0176904Y0044100D01*
X0177054Y0044000D01*
X0148104Y0043200D02*
X0068904Y0043200D01*
X0068304Y0043000D01*
X0125704Y0109800D02*
X0126504Y0109800D01*
X0148104Y0131400D01*
D16*
X0148104Y0131400D03*
M02*
